<svg xmlns="http://www.w3.org/2000/svg" width="52" height="52" fill="none"><path fill="#008E62" fill-rule="evenodd" d="M0 0h179v52H0V0z" clip-rule="evenodd"/><path fill="#FEFEFE" fill-rule="evenodd" d="M1.201 1.458h46.665v49.085H1.201V1.458z" clip-rule="evenodd"/><path fill="#008E62" fill-rule="evenodd" d="M43.87 36.08c-1.869 3.399-4.362 5.553-7.033 7.178-3.235 1.962-6.467-.53-10.778-.53-3.377 0-6.69 1.652-10.345.453C9.93 41.283 5.54 34.051 5.54 27.511c0-6.561 1.357-11.79 6.922-15.17 4.878-2.967 11.533.614 11.533.614s-4.756-5.25-11.262-2.883C5.357 12.752 2.516 20.08 2.516 27.662c0 7.522 5.265 16.934 12.596 19.487 5.344 1.474 5.273-.553 10.876-.553 5.604 0 6.967 2.478 10.78.742 5.004-2.51 7.828-6.046 9.783-11.312-.46.03-1.962.053-2.68.053zM27.456 10.817c.057-.227.351-1.256-.05-2.404-.365-1.302-1.651-2.756-2.96-2.864.015.042.516.027 1.402.766.805.706 1.993 2.154 1.608 4.502zm-.407 1.83c.213-.568.28-1.254.245-1.45 0-.004-.658-.377-1.238-.985-.614-.63-1.15-1.497-1.769-3.03-.541-1.23-1.371-1.8-1.964-2.06-.612-.255-.99-.201-1.173-.155.417-.168 2.205-.757 4.365.044 1.032.395 2.067 1.142 2.616 2.251.543 1.091.596 2.55-.47 3.949.008.015-.322.775-.517 1.646a1.16 1.16 0 0 0-.125-.119l.03-.09z" clip-rule="evenodd"/><path fill="#008E62" fill-rule="evenodd" d="M33.817 7.259c-2.472.949-4.17 3.153-4.076 3.144 3.664-3.645 6.85-3.594 8.553-3.431 1.796.294 2.109.695 2.216.772-1.124-1.418-4.296-1.58-6.693-.485zm4.73 4.648c-5.295 4.991-9.124-.57-9.228-.714-.326.117-1.354.908-1.962 1.844l-.386-.104c1.008-1.053 2.049-2.79 2.066-2.78 1.658-4.56 4.261-5.762 6.401-6.062 2.197-.231 3.932.444 5.183 1.207 2.333 1.516 3.379 3.618 3.712 4.62-.254-.427-1.399-1.67-5.787 1.989zM28.176 22.725h5.578v-5.901h4.796v5.901h5.61v5.044h-5.61v5.865h-4.796v-5.865h-5.578v-5.044z" clip-rule="evenodd"/><path fill="#CE0C36" fill-rule="evenodd" d="M28.241 29.163c0-3.003-.552-3.536-1.957-3.536-.599 0-1.014.07-1.453.216v5.84c.025.508.554.872 1.5.872 1.312 0 1.91-.773 1.91-3.392zm-6.953 2.497v-5.817c-.416-.145-.852-.216-1.45-.216-1.406 0-1.959.534-1.959 3.536 0 2.619.623 3.392 1.912 3.392.967 0 1.497-.392 1.497-.895zm0-13.735h3.543v4.75c.44-.125.899-.148 1.453-.148 3.892 0 5.34 1.477 5.34 6.543 0 5.01-1.747 6.534-4.536 6.534-1.036 0-1.727-.267-2.257-.553v4.867h-3.543v-4.867c-.509.286-1.2.553-2.257.553-2.787 0-4.537-1.524-4.537-6.534 0-5.066 1.45-6.543 5.344-6.543.552 0 1.011.023 1.45.148v-4.75z" clip-rule="evenodd"/></svg>