<svg
                viewBox="0 -30 512 512"
                xmlns="http://www.w3.org/2000/svg"
                width="56px"
                height="56px"
                fill="currentColor"
              >
                <path
                  d="m180.605469 234.582031h-113.878907c-2.335937 0-4.230468 1.894531-4.230468 4.230469v213.039062h122.339844v-213.039062c0-2.335938-1.894532-4.230469-4.230469-4.230469zm0 0"
                  fill="#78c2a4"
                />
                <path
                  d="m144.835938 234.582031v179.152344c0 10.007813-8.113282 18.117187-18.117188 18.117187h-64.222656v20h122.339844v-213.039062c0-2.335938-1.894532-4.230469-4.230469-4.230469zm0 0"
                  fill="#4fab86"
                />
                <path
                  d="m87.496094 423.21875v-160c0-2.007812 1.625-3.636719 3.636718-3.636719h65.066407c2.007812 0 3.636719 1.628907 3.636719 3.636719v160c0 2.007812-1.628907 3.632812-3.636719 3.632812h-65.066407c-2.007812 0-3.636718-1.625-3.636718-3.632812zm0 0"
                  fill="#b2ebf2"
                />
                <path
                  d="m129.835938 259.582031v121.058594c0 14.476563-11.734376 26.214844-26.214844 26.214844h-16.125v16.363281c0 2.007812 1.625 3.636719 3.636718 3.636719h65.066407c2.007812 0 3.636719-1.628907 3.636719-3.636719v-160c0-2.007812-1.628907-3.632812-3.636719-3.632812h-26.363281zm0 0"
                  fill="#80deea"
                />
                <path
                  d="m7.5 416.488281h54.996094v35.367188h-54.996094zm0 0"
                  fill="#78909c"
                />
                <path
                  d="m7.5 431.855469h54.996094v20h-54.996094zm0 0"
                  fill="#546e7a"
                />
                <path
                  d="m184.835938 416.488281h319.664062v35.367188h-319.664062zm0 0"
                  fill="#78909c"
                />
                <path
                  d="m464.5 416.488281v4.78125c0 5.84375-4.738281 10.582031-10.585938 10.582031h-269.078124v20h319.664062v-35.363281zm0 0"
                  fill="#546e7a"
                />
                <path
                  d="m22.511719 192.792969v223.695312h39.984375v-177.675781c0-2.335938 1.894531-4.230469 4.226562-4.230469h113.882813c2.335937 0 4.230469 1.894531 4.230469 4.230469v177.675781h304.652343v-223.695312zm0 0"
                  fill="#dce6eb"
                />
                <path
                  d="m489.488281 192.792969v223.695312h-304.652343v-20h190.421874c40.996094 0 74.230469-33.234375 74.230469-74.230469v-129.464843zm-466.976562 203.695312v20h39.984375v-20zm0 0"
                  fill="#b9c3cd"
                />
                <path
                  d="m417.105469 356.277344h-159.886719c-4.269531 0-7.730469-3.460938-7.730469-7.730469v-106.234375c0-4.269531 3.460938-7.730469 7.730469-7.730469h159.886719c4.269531 0 7.730469 3.460938 7.730469 7.730469v106.234375c0 4.269531-3.460938 7.730469-7.730469 7.730469zm0 0"
                  fill="#b2ebf2"
                />
                <path
                  d="m417.105469 234.582031h-32.269531v72.214844c0 16.28125-13.199219 29.480469-29.484376 29.480469h-105.863281v12.269531c0 4.269531 3.460938 7.730469 7.730469 7.730469h159.886719c4.269531 0 7.730469-3.460938 7.730469-7.730469v-106.234375c0-4.269531-3.460938-7.730469-7.730469-7.730469zm0 0"
                  fill="#80deea"
                />
                <path
                  d="m184.152344 311.804688v62.824218h-24.316406v-62.824218zm0 0"
                  fill="#78909c"
                />
                <path
                  d="m355.589844 356.277344h-36.855469v-24.855469c0-10.179687 8.25-18.425781 18.425781-18.425781 10.179688 0 18.425782 8.25 18.425782 18.425781v24.855469zm0 0"
                  fill="#80deea"
                />
                <path
                  d="m367.71875 273.765625c0 8.300781-6.730469 15.027344-15.027344 15.027344h-31.054687c-8.300781 0-15.027344-6.726563-15.027344-15.027344 0-8.296875 6.726563-15.027344 15.027344-15.027344h31.054687c8.296875 0 15.027344 6.730469 15.027344 15.027344zm0 0"
                  fill="#ffc14f"
                />
                <path
                  d="m352.6875 258.738281h-.851562c.558593 1.574219.878906 3.261719.878906 5.027344 0 8.300781-6.726563 15.03125-15.027344 15.03125h-30.199219c2.070313 5.820313 7.613281 10 14.144531 10h31.054688c8.300781 0 15.027344-6.730469 15.027344-15.03125.003906-8.296875-6.726563-15.027344-15.027344-15.027344zm0 0"
                  fill="#ffa90b"
                />
                <path
                  d="m321.636719 258.738281c-8.300781 0-15.027344 6.730469-15.027344 15.027344 0 8.300781 6.726563 15.027344 15.027344 15.027344h15.523437v-30.054688zm0 0"
                  fill="#e04955"
                />
                <path
                  d="m337.160156 278.796875h-29.671875c1.917969 5.394531 6.828125 9.378906 12.75 9.925781 1.070313.101563.039063.074219 16.925781.074219v-10zm0 0"
                  fill="#c62430"
                />
                <path
                  d="m504.5 67.464844h-497c-4.140625 0-7.5 3.359375-7.5 7.5v110.328125c0 4.144531 3.359375 7.5 7.5 7.5h497c4.144531 0 7.5-3.355469 7.5-7.5v-110.328125c0-4.140625-3.355469-7.5-7.5-7.5zm0 0"
                  fill="#78c2a4"
                />
                <path
                  d="m504.5 67.464844h-32.5v33.171875c0 39.851562-32.304688 72.15625-72.15625 72.15625h-399.84375v12.5c0 4.144531 3.359375 7.5 7.5 7.5h497c4.140625 0 7.5-3.355469 7.5-7.5v-110.328125c0-4.140625-3.359375-7.5-7.5-7.5zm0 0"
                  fill="#4fab86"
                />
                <path
                  d="m213.800781 192.792969h-15v-125.328125h15zm-49.699219-125.328125h-15v125.328125h15zm-114.402343 125.328125h15v-125.328125h-15zm64.699219-125.328125h-15v125.328125h15zm149.101562 0h-15v125.328125h15zm149.101562 0h-15v125.328125h15zm49.699219 0h-15v125.328125h15zm-149.101562 0h-15v125.328125h15zm49.699219 0h-15v125.328125h15zm0 0"
                  fill="#4fab86"
                />
                <path
                  d="m213.800781 172.792969v20h-15v-20zm-64.699219 0v20h15v-20zm-49.703124 0v20h15v-20zm-49.699219 0v20h15v-20zm198.800781 0v20h15v-20zm151.34375 0h-2.242188v20h15v-21.144531c-4.144531.738281-8.402343 1.144531-12.757812 1.144531zm-101.644531 0v20h15v-20zm149.101562-17.824219v37.824219h15v-56.035157c-3.980469 6.867188-9.058593 13.015626-15 18.210938zm-99.402343 17.824219v20h15v-20zm0 0"
                  fill="#00897b"
                />
                <path
                  d="m330.964844 74.964844c0 41.402344-33.5625 74.964844-74.964844 74.964844s-74.964844-33.5625-74.964844-74.964844 33.5625-74.964844 74.964844-74.964844 74.964844 33.5625 74.964844 74.964844zm0 0"
                  fill="#e04955"
                />
                <path
                  d="m267.964844.960938c14.167968 13.640624 23 32.785156 23 54.003906 0 41.402344-33.5625 74.964844-74.964844 74.964844-4.074219 0-8.066406-.335938-11.964844-.960938 13.476563 12.96875 31.78125 20.960938 51.964844 20.960938 41.402344 0 74.964844-33.5625 74.964844-74.964844 0-37.328125-27.289063-68.273438-63-74.003906zm0 0"
                  fill="#c62430"
                />
                <path
                  d="m292.769531 60.929688h-17.785156c-2.734375 0-4.949219-2.214844-4.949219-4.945313v-17.789063c0-2.730468-2.214844-4.949218-4.945312-4.949218h-18.175782c-2.734374 0-4.949218 2.21875-4.949218 4.949218v17.789063c0 2.730469-2.214844 4.945313-4.945313 4.945313h-17.789062c-2.730469 0-4.945313 2.214843-4.945313 4.949218v18.175782c0 2.730468 2.214844 4.945312 4.945313 4.945312h17.789062c2.730469 0 4.945313 2.214844 4.945313 4.945312v17.789063c0 2.734375 2.214844 4.949219 4.949218 4.949219h18.175782c2.730468 0 4.945312-2.214844 4.945312-4.949219v-17.789063c0-2.730468 2.214844-4.945312 4.949219-4.945312h17.785156c2.734375 0 4.949219-2.214844 4.949219-4.945312v-18.175782c0-2.734375-2.214844-4.949218-4.949219-4.949218zm0 0"
                  fill="#dce6eb"
                />
                <g fill="#b9c3cd">
                  <path d="m297.71875 84.054688v-18.175782c0-2.734375-2.214844-4.949218-4.949219-4.949218h-2.0625c-.792969 10.046874-3.558593 19.53125-7.921875 28.070312h9.984375c2.734375 0 4.949219-2.214844 4.949219-4.945312zm0 0" />
                  <path d="m265.089844 116.683594c2.730468 0 4.945312-2.214844 4.945312-4.949219v-4.839844c-3.492187 3.632813-7.339844 6.917969-11.496094 9.789063zm0 0" />
                </g>
              </svg>